<?xml version="1.0" encoding="iso-8859-1"?>
<!-- Generator: Adobe Illustrator 19.0.0, SVG Export Plug-In . SVG Version: 6.00 Build 0)  -->
<svg version="1.1" id="Layer_1" xmlns="http://www.w3.org/2000/svg" xmlns:xlink="http://www.w3.org/1999/xlink" x="0px" y="0px"
	 viewBox="0 0 496.2 496.2" style="enable-background:new 0 0 496.2 496.2;" xml:space="preserve">
<path style="fill:#D0E4F2;" d="M0,248.1C0,111.1,111.1,0,248.1,0s248.1,111.1,248.1,248.1S385.1,496.2,248.1,496.2S0,385.1,0,248.1z
	"/>
<path style="fill:#1A8BB3;" d="M307,129.6c-22.3,0-43.2,6.3-60.9,17.2c33.4,20.5,55.7,57.3,55.7,99.4c0,42-22.3,78.9-55.7,99.4
	c17.7,10.9,38.6,17.2,60.9,17.2c64.4,0,116.6-52.2,116.6-116.6C423.6,181.8,371.4,129.6,307,129.6z"/>
<path style="fill:#D65900;" d="M190.5,246.1c0-42,22.3-78.9,55.7-99.4c-17.7-10.9-38.6-17.2-60.9-17.2
	c-64.4,0-116.6,52.2-116.6,116.6s52.2,116.6,116.6,116.6c22.3,0,43.2-6.3,60.9-17.2C212.7,325,190.5,288.2,190.5,246.1z"/>
<path style="fill:#EBE3CB;" d="M301.8,246.1c0-42-22.3-78.9-55.7-99.4c-33.4,20.5-55.7,57.3-55.7,99.4c0,42,22.3,78.9,55.7,99.4
	C279.5,325,301.8,288.2,301.8,246.1z"/>
<g>
</g>
<g>
</g>
<g>
</g>
<g>
</g>
<g>
</g>
<g>
</g>
<g>
</g>
<g>
</g>
<g>
</g>
<g>
</g>
<g>
</g>
<g>
</g>
<g>
</g>
<g>
</g>
<g>
</g>
</svg>
