<svg height="512pt" viewBox="0 0 512 512" width="512pt" xmlns="http://www.w3.org/2000/svg" xmlns:xlink="http://www.w3.org/1999/xlink"><linearGradient id="a" gradientTransform="matrix(1 0 0 -1 0 -13734)" gradientUnits="userSpaceOnUse" x1="0" x2="512" y1="-13990" y2="-13990"><stop offset="0" stop-color="#00f1ff"/><stop offset=".231" stop-color="#00d8ff"/><stop offset=".5138" stop-color="#00c0ff"/><stop offset=".7773" stop-color="#00b2ff"/><stop offset="1" stop-color="#00adff"/></linearGradient><path d="m512 256c0 141.386719-114.613281 256-256 256s-256-114.613281-256-256 114.613281-256 256-256 256 114.613281 256 256zm0 0" fill="url(#a)"/><g fill="#fff"><path d="m408.5 306.265625c-8.285156 0-15 6.714844-15 15v61.386719c0 5.980468-4.867188 10.847656-10.847656 10.847656h-63.328125c-8.28125 0-15 6.71875-15 15 0 8.285156 6.71875 15 15 15h63.328125c22.523437 0 40.847656-18.324219 40.847656-40.847656v-61.386719c0-8.285156-6.714844-15-15-15zm0 0"/><path d="m382.652344 88.5h-63.328125c-8.28125 0-15 6.714844-15 15s6.71875 15 15 15h63.328125c5.980468 0 10.847656 4.867188 10.847656 10.847656v62.035156c0 8.28125 6.714844 15 15 15s15-6.71875 15-15v-62.035156c0-22.523437-18.324219-40.847656-40.847656-40.847656zm0 0"/><path d="m408.5 241.644531h-95.160156l32.714844-32.515625c5.875-5.839844 5.90625-15.339844.0625-21.214844-5.835938-5.875-15.335938-5.902343-21.210938-.0625l-39.632812 39.394532c-7.714844 7.714844-11.964844 17.972656-11.964844 28.882812s4.25 21.167969 11.945312 28.863282l39.601563 39.75c2.929687 2.941406 6.777343 4.414062 10.625 4.414062 3.828125 0 7.660156-1.457031 10.585937-4.371094 5.871094-5.847656 5.886719-15.34375.042969-21.214844l-31.804687-31.921874h94.195312c8.285156 0 15-6.71875 15-15 0-8.285157-6.714844-15.003907-15-15.003907zm0 0"/><path d="m187.09375 187.851562c-5.875-5.839843-15.375-5.8125-21.214844.0625s-5.8125 15.375.066406 21.214844l32.714844 32.515625h-95.160156c-8.285156 0-15 6.71875-15 15 0 8.285157 6.714844 15 15 15h94.195312l-31.804687 31.925781c-5.84375 5.867188-5.828125 15.367188.042969 21.210938 2.925781 2.917969 6.757812 4.375 10.585937 4.375 3.847657 0 7.695313-1.472656 10.625-4.414062l39.582031-39.730469c7.714844-7.714844 11.964844-17.976563 11.964844-28.886719s-4.25-21.167969-11.996094-28.914062zm0 0"/><path d="m192.675781 393.5h-63.328125c-5.980468 0-10.847656-4.867188-10.847656-10.847656v-61.386719c0-8.285156-6.714844-15-15-15s-15 6.714844-15 15v61.386719c0 22.523437 18.324219 40.847656 40.847656 40.847656h63.328125c8.28125 0 15-6.714844 15-15s-6.71875-15-15-15zm0 0"/><path d="m103.5 206.382812c8.285156 0 15-6.71875 15-15v-62.035156c0-5.980468 4.867188-10.847656 10.847656-10.847656h63.328125c8.28125 0 15-6.71875 15-15 0-8.285156-6.71875-15-15-15h-63.328125c-22.523437 0-40.847656 18.324219-40.847656 40.847656v62.035156c0 8.28125 6.714844 15 15 15zm0 0"/></g></svg>