<?xml version="1.0" encoding="UTF-8" standalone="no"?>
<!-- Created with Inkscape (http://www.inkscape.org/) -->
<svg
   xmlns:dc="http://purl.org/dc/elements/1.1/"
   xmlns:cc="http://creativecommons.org/ns#"
   xmlns:rdf="http://www.w3.org/1999/02/22-rdf-syntax-ns#"
   xmlns:svg="http://www.w3.org/2000/svg"
   xmlns="http://www.w3.org/2000/svg"
   xmlns:sodipodi="http://sodipodi.sourceforge.net/DTD/sodipodi-0.dtd"
   xmlns:inkscape="http://www.inkscape.org/namespaces/inkscape"
   id="svg2"
   sodipodi:version="0.32"
   inkscape:version="0.46"
   width="312"
   height="320"
   version="1.0"
   sodipodi:docname="clebisonza_atencao"
   inkscape:output_extension="org.inkscape.output.svg.inkscape">
  <metadata
     id="metadata7">
    <rdf:RDF>
      <cc:Work
         rdf:about="">
        <dc:format>image/svg+xml</dc:format>
        <dc:type
           rdf:resource="http://purl.org/dc/dcmitype/StillImage" />
      </cc:Work>
    </rdf:RDF>
  </metadata>
  <defs
     id="defs5">
    <inkscape:perspective
       sodipodi:type="inkscape:persp3d"
       inkscape:vp_x="0 : 526.18109 : 1"
       inkscape:vp_y="0 : 1000 : 0"
       inkscape:vp_z="744.09448 : 526.18109 : 1"
       inkscape:persp3d-origin="372.04724 : 350.78739 : 1"
       id="perspective9" />
  </defs>
  <sodipodi:namedview
     inkscape:window-height="696"
     inkscape:window-width="1024"
     inkscape:pageshadow="2"
     inkscape:pageopacity="0.0"
     guidetolerance="10.0"
     gridtolerance="10.0"
     objecttolerance="10.0"
     borderopacity="1.0"
     bordercolor="#666666"
     pagecolor="#ffffff"
     id="base"
     showgrid="false"
     inkscape:zoom="1.44375"
     inkscape:cx="234.1258"
     inkscape:cy="158.52042"
     inkscape:window-x="-4"
     inkscape:window-y="-4"
     inkscape:current-layer="svg2" />
  <g
     id="g3164">
    <path
       sodipodi:nodetypes="csssssss"
       id="path3162"
       d="M 144.16011,35.354608 C 120.85444,75.958986 53.958435,191.91873 9.9254615,269.34117 C 6.5473342,275.29258 13.371737,287.33471 18.87667,287.33361 C 72.460475,287.32271 238.13279,287.25727 294.50448,287.21366 C 300.74741,287.20883 306.17526,274.06487 302.88747,268.26884 C 266.62584,204.34338 199.7494,88.944539 169.37819,35.580979 C 168.73395,34.44903 162.39734,29.341858 157.16572,29.402851 C 151.83354,29.464004 145.27064,33.419777 144.16011,35.354608 z"
       style="fill:#000000;fill-rule:evenodd;stroke:none;stroke-width:1px;stroke-linecap:butt;stroke-linejoin:miter;stroke-opacity:1" />
    <path
       sodipodi:nodetypes="cssssss"
       id="path3160"
       d="M 154.11255,61.298701 C 128.73492,104.9264 73.04831,201.82461 38.961039,260.08658 C 37.610604,262.39474 40.096502,267.38561 42.770563,267.35931 C 84.515973,266.94876 226.83411,267.59919 270.82251,267.53247 C 273.26185,267.52877 275.67321,262.37535 274.45887,260.25974 C 246.33614,211.26468 184.04584,102.29175 160.34632,61.471862 C 159.40697,59.853929 155.05323,59.68154 154.11255,61.298701 z"
       style="fill:#ffff00;fill-rule:evenodd;stroke:none;stroke-width:1px;stroke-linecap:butt;stroke-linejoin:miter;stroke-opacity:1" />
    <path
       sodipodi:nodetypes="csscscsss"
       id="path2384"
       d="M 158.44156,98.181818 C 154.73632,98.114044 149.19841,99.354256 145.40877,102.56587 C 141.49875,105.8795 139.93821,108.36612 139.91342,111.51515 C 139.70925,137.45671 146.055,198.77241 146.055,198.77241 C 146.055,198.77241 148.40423,208.39844 157.74892,207.96537 C 166.66214,207.54428 169.14427,199.99363 169.14427,199.99363 C 169.21815,199.99363 175.58482,137.37226 175.2381,111.51515 C 175.19656,108.41703 174.01862,106.57511 170.17065,103.06152 C 166.77746,99.963182 161.82105,98.243634 158.44156,98.181818 z"
       style="fill:#000000;fill-rule:evenodd;stroke:none;stroke-width:1px;stroke-linecap:butt;stroke-linejoin:miter;stroke-opacity:1" />
    <path
       transform="matrix(1.0179641,0,0,1,-2.9281697,-0.3463204)"
       d="M 172.6407,236.27705 A 14.458875,12.034632 0 1 1 143.72295,236.27705 A 14.458875,12.034632 0 1 1 172.6407,236.27705 z"
       sodipodi:ry="12.034632"
       sodipodi:rx="14.458875"
       sodipodi:cy="236.27705"
       sodipodi:cx="158.18182"
       id="path3156"
       style="opacity:1;fill:#000000;fill-opacity:1;fill-rule:evenodd;stroke:none;stroke-width:5;stroke-linecap:butt;stroke-linejoin:miter;stroke-miterlimit:4;stroke-dasharray:none;stroke-dashoffset:0;stroke-opacity:1"
       sodipodi:type="arc" />
  </g>
</svg>
